<svg xmlns="http://www.w3.org/2000/svg" version="1.1" xmlns:xlink="http://www.w3.org/1999/xlink" xmlns:svgjs="http://svgjs.dev/svgjs" width="2000" height="792" viewBox="0 0 2000 792"><g transform="matrix(1,0,0,1,-1.2121212121212466,-0.5691135228341295)"><svg viewBox="0 0 396 157" data-background-color="#ffffff" preserveAspectRatio="xMidYMid meet" height="792" width="2000" xmlns="http://www.w3.org/2000/svg" xmlns:xlink="http://www.w3.org/1999/xlink"><g id="tight-bounds" transform="matrix(1,0,0,1,0.2400000000000091,0.11281669581434528)"><svg viewBox="0 0 395.52 156.7743666083713" height="156.7743666083713" width="395.52"><g><svg viewBox="0 0 397.4975999999999 157.55823844141315" height="156.7743666083713" width="395.52"><g><rect width="397.4975999999999" height="4.825800746153063" x="0" y="86.58708150658958" fill="#ffffff" opacity="1" stroke-width="0" stroke="transparent" fill-opacity="1" class="rect-qz-0" data-fill-palette-color="secondary" rx="1%" id="qz-0" data-palette-color="#77d4fc"></rect></g><g transform="matrix(1,0,0,1,0.9887999999999693,104.04586849921664)"><svg viewBox="0 0 395.52 53.51236994219652" height="53.51236994219652" width="395.52"><g id="textblocktransform"><svg viewBox="0 0 395.52 53.51236994219652" height="53.51236994219652" width="395.52" id="textblock"><g><svg viewBox="0 0 395.52 53.51236994219652" height="53.51236994219652" width="395.52"><g transform="matrix(1,0,0,1,0,0)"><svg width="395.52" viewBox="0.05 -36.4 276.77 37.449999999999996" height="53.51236994219652" data-palette-color="#111827"><path d="M11.15 1.05Q8.25 1.05 5.78-0.13 3.3-1.3 1.78-3.38 0.25-5.45 0.05-8.05L0.05-8.05 3.8-9.4Q4.15-6.3 6.35-4.53 8.55-2.75 11.3-2.75L11.3-2.75Q13.3-2.75 15.1-3.65 16.9-4.55 18.13-6.18 19.35-7.8 19.6-9.9L19.6-9.9Q19.65-10.2 19.65-10.8L19.65-10.8Q19.65-12.45 18.63-13.68 17.6-14.9 15.1-16.25L15.1-16.25Q11.7-18.05 9.9-19.18 8.1-20.3 6.9-21.93 5.7-23.55 5.7-25.8L5.7-25.8Q5.7-28.5 7.18-30.65 8.65-32.8 11.05-34 13.45-35.2 16.05-35.2L16.05-35.2Q18.05-35.2 19.73-34.4 21.4-33.6 22.35-32.27 23.3-30.95 23.3-29.4L23.3-29.4Q23.3-28.6 23.1-27.95L23.1-27.95 19.35-28.4Q19.45-28.8 19.45-29L19.45-29Q19.45-30 18.28-30.7 17.1-31.4 15.8-31.4L15.8-31.4Q14.25-31.4 12.85-30.68 11.45-29.95 10.58-28.75 9.7-27.55 9.7-26.2L9.7-26.2Q9.7-24.35 11.33-22.98 12.95-21.6 15.75-20.1L15.75-20.1 17.45-19.1Q20.65-17.2 22.13-15.33 23.6-13.45 23.6-10.9L23.6-10.9Q23.6-7.5 21.83-4.75 20.05-2 17.18-0.48 14.3 1.05 11.15 1.05L11.15 1.05ZM32.95-36.35L36.95-36.35 35.1-22.8Q38.3-25.85 42.8-25.85L42.8-25.85Q46.4-25.85 48.27-24 50.15-22.15 50.15-18.85L50.15-18.85Q50.15-18.4 50.05-17.3L50.05-17.3 47.75 0.05 43.8 0.05 46-16.95Q46.1-18.05 46.1-18.45L46.1-18.45Q46.1-20.25 45.25-21.2 44.4-22.15 42.4-22.15L42.4-22.15Q40.05-22.15 38.32-21.03 36.6-19.9 34.5-17.45L34.5-17.45 32.15 0.05 28.15 0.05 32.95-36.35ZM63.8 0.5Q59.35 0.5 56.95-2.6 54.55-5.7 54.55-10.35L54.55-10.35Q54.55-11.55 54.7-12.75L54.7-12.75Q55.2-16.5 57.05-19.48 58.9-22.45 61.82-24.15 64.75-25.85 68.35-25.85L68.35-25.85Q69.5-25.85 71.17-25.73 72.85-25.6 74-25.4L74-25.4 77.35-25.4 75-7.5Q74.9-6.3 74.9-5.85L74.9-5.85Q74.9-3.15 76.3-1.8L76.3-1.8 73.55 0.6Q72.45-0.3 71.95-1.23 71.45-2.15 71.1-3.3L71.1-3.3Q70.05-1.55 67.95-0.53 65.85 0.5 63.8 0.5L63.8 0.5ZM64-3.2Q66-3.2 67.67-4.3 69.35-5.4 70.3-7.1L70.3-7.1Q71.15-8.35 71.35-9.8L71.35-9.8 73-21.8 71.2-21.95Q68.8-22.15 67.85-22.15L67.85-22.15Q64.2-22.15 61.7-19.38 59.2-16.6 58.65-12.4L58.65-12.4Q58.5-11.45 58.5-10.4L58.5-10.4Q58.5-7.3 59.9-5.25 61.3-3.2 64-3.2L64-3.2ZM94.69-25.85Q95.99-25.85 98.09-25.3L98.09-25.3 97.64-21.45Q95.94-21.95 94.69-21.95L94.69-21.95Q92.29-21.95 90.89-20.7L90.89-20.7Q89.29-19.75 87.89-17.55L87.89-17.55 85.54 0.05 81.54 0.05 83.89-17.75Q83.99-18.35 83.99-19.45L83.99-19.45Q83.99-22.1 82.64-23.4L82.64-23.4 85.49-25.85Q86.19-25.4 86.82-24.48 87.44-23.55 87.74-22.5L87.74-22.5Q88.84-23.8 90.19-24.75L90.19-24.75Q92.24-25.85 94.69-25.85L94.69-25.85ZM102.24-10.95Q102.19-10.5 102.19-9.55L102.19-9.55Q102.19-3.15 108.09-3.15L108.09-3.15Q110.19-3.15 112.14-3.83 114.09-4.5 116.19-5.95L116.19-5.95 117.79-2.75Q115.84-1.3 113.14-0.38 110.44 0.55 107.79 0.55L107.79 0.55Q103.19 0.55 100.67-2.3 98.14-5.15 98.14-9.8L98.14-9.8Q98.14-10.95 98.29-12.15L98.29-12.15Q98.79-15.7 100.47-18.85 102.14-22 104.84-23.93 107.54-25.85 110.94-25.85L110.94-25.85Q113.54-25.85 115.62-24.65 117.69-23.45 118.84-21.33 119.99-19.2 119.99-16.5L119.99-16.5Q119.99-16 119.89-14.9L119.89-14.9Q119.54-12.9 119.14-10.95L119.14-10.95 102.24-10.95ZM102.94-14.65L115.94-14.75 115.99-15.35Q116.09-16.15 116.09-16.5L116.09-16.5Q116.09-19 114.59-20.58 113.09-22.15 110.79-22.15L110.79-22.15Q108.24-22.15 106.09-20.2 103.94-18.25 102.94-14.65L102.94-14.65ZM147.14 0.5Q142.79 0.5 140.39-2.58 137.99-5.65 137.99-10.35L137.99-10.35Q137.99-11.5 138.14-12.7L138.14-12.7Q138.64-16.4 140.44-19.4 142.24-22.4 145.14-24.1 148.04-25.8 151.64-25.8L151.64-25.8Q153.54-25.8 156.84-25.4L156.84-25.4 158.39-36.4 162.09-36.4 158.29-7.45Q158.19-6.85 158.19-5.75L158.19-5.75Q158.19-3.15 159.59-1.7L159.59-1.7 157.04 0.55Q156.19-0.05 155.61-0.98 155.04-1.9 154.79-2.95L154.79-2.95Q153.29-1.15 151.29-0.33 149.29 0.5 147.14 0.5L147.14 0.5ZM147.44-3.2Q149.49-3.2 151.16-4.23 152.84-5.25 153.84-7.05L153.84-7.05Q154.64-8.1 154.89-9.75L154.89-9.75 156.54-21.65Q153.19-22.1 151.14-22.1L151.14-22.1Q147.49-22.1 144.99-19.35 142.49-16.6 141.94-12.45L141.94-12.45Q141.79-11.4 141.79-10.45L141.79-10.45Q141.79-7.2 143.24-5.2 144.69-3.2 147.44-3.2L147.44-3.2ZM168.43-10.95Q168.38-10.5 168.38-9.55L168.38-9.55Q168.38-3.15 174.28-3.15L174.28-3.15Q176.38-3.15 178.33-3.83 180.28-4.5 182.38-5.95L182.38-5.95 183.98-2.75Q182.03-1.3 179.33-0.38 176.63 0.55 173.98 0.55L173.98 0.55Q169.38 0.55 166.86-2.3 164.33-5.15 164.33-9.8L164.33-9.8Q164.33-10.95 164.48-12.15L164.48-12.15Q164.98-15.7 166.66-18.85 168.33-22 171.03-23.93 173.73-25.85 177.13-25.85L177.13-25.85Q179.73-25.85 181.81-24.65 183.88-23.45 185.03-21.33 186.18-19.2 186.18-16.5L186.18-16.5Q186.18-16 186.08-14.9L186.08-14.9Q185.73-12.9 185.33-10.95L185.33-10.95 168.43-10.95ZM169.13-14.65L182.13-14.75 182.18-15.35Q182.28-16.15 182.28-16.5L182.28-16.5Q182.28-19 180.78-20.58 179.28-22.15 176.98-22.15L176.98-22.15Q174.43-22.15 172.28-20.2 170.13-18.25 169.13-14.65L169.13-14.65ZM205.43 0.05L209.93-34.3 231.68-34.3 231.13-30.4 213.38-30.4 211.98-19.65 225.48-19.65 224.93-15.75 211.48-15.75 209.38 0.05 205.43 0.05ZM232.03 0L235.33-25.05 239.33-25 236.03 0.05 232.03 0ZM238.08-29.9Q237.13-29.9 236.43-30.63 235.73-31.35 235.73-32.35L235.73-32.35Q235.73-33.4 236.55-34.27 237.38-35.15 238.38-35.15L238.38-35.15Q239.38-35.15 240.1-34.4 240.83-33.65 240.83-32.65L240.83-32.65Q240.83-31.6 239.95-30.75 239.08-29.9 238.08-29.9L238.08-29.9ZM243.87 0.05L248.67-36.35 252.57-36.35 247.77 0.05 243.87 0.05ZM259.07-10.95Q259.02-10.5 259.02-9.55L259.02-9.55Q259.02-3.15 264.92-3.15L264.92-3.15Q267.02-3.15 268.97-3.83 270.92-4.5 273.02-5.95L273.02-5.95 274.62-2.75Q272.67-1.3 269.97-0.38 267.27 0.55 264.62 0.55L264.62 0.55Q260.02 0.55 257.5-2.3 254.97-5.15 254.97-9.8L254.97-9.8Q254.97-10.95 255.12-12.15L255.12-12.15Q255.62-15.7 257.3-18.85 258.97-22 261.67-23.93 264.37-25.85 267.77-25.85L267.77-25.85Q270.37-25.85 272.45-24.65 274.52-23.45 275.67-21.33 276.82-19.2 276.82-16.5L276.82-16.5Q276.82-16 276.72-14.9L276.72-14.9Q276.37-12.9 275.97-10.95L275.97-10.95 259.07-10.95ZM259.77-14.65L272.77-14.75 272.82-15.35Q272.92-16.15 272.92-16.5L272.92-16.5Q272.92-19 271.42-20.58 269.92-22.15 267.62-22.15L267.62-22.15Q265.07-22.15 262.92-20.2 260.77-18.25 259.77-14.65L259.77-14.65Z" opacity="1" transform="matrix(1,0,0,1,0,0)" fill="#ffffff" class="wordmark-text-0" data-fill-palette-color="primary" id="text-0"></path></svg></g></svg></g></svg></g></svg></g><g transform="matrix(1,0,0,1,162.74510874955638,0)"><svg viewBox="0 0 72.00738250088713 73.9540952601156" height="73.9540952601156" width="72.00738250088713"><g><svg xmlns="http://www.w3.org/2000/svg" xmlns:xlink="http://www.w3.org/1999/xlink" version="1.1" x="8" y="0" viewBox="14.027000000000005 2.5 71.94600000000001 95" enable-background="new 0 0 100 100" xml:space="preserve" height="73.9540952601156" width="56.00738250088713" class="icon-icon-0" data-fill-palette-color="accent" id="icon-0"><g fill="#111827" data-fill-palette-color="accent"><path d="M69.383 64.324c-4.732 0-9 2.004-12.027 5.195L44.512 59.027c1.695-2.602 2.691-5.7 2.691-9.027 0-3.401-1.029-6.562-2.793-9.197l13.082-10.177c3.014 3.107 7.232 5.05 11.891 5.05 9.15 0 16.59-7.44 16.59-16.588S78.533 2.5 69.383 2.5c-9.143 0-16.586 7.44-16.586 16.588 0 3.401 1.029 6.562 2.793 9.197L42.508 38.462c-3.018-3.107-7.232-5.05-11.891-5.05-9.146 0-16.59 7.44-16.59 16.588s7.443 16.588 16.59 16.588c4.732 0 9-2.004 12.027-5.195l12.844 10.496c-1.695 2.598-2.691 5.696-2.691 9.023 0 9.147 7.443 16.588 16.586 16.588 9.15 0 16.59-7.44 16.59-16.588S78.533 64.324 69.383 64.324z" fill="#ffffff" data-fill-palette-color="accent"></path></g></svg></g></svg></g><g><rect width="86.21198874955643" height="4.825800746153063" y="68.12829451396253" x="234.7524912504435" fill="#ffffff" data-fill-palette-color="secondary"></rect><rect width="86.21198874955643" height="4.825800746153063" y="68.12829451396253" x="76.53311999999997" fill="#ffffff" data-fill-palette-color="secondary"></rect></g></svg></g><defs></defs></svg><rect width="395.52" height="156.7743666083713" fill="none" stroke="none" visibility="hidden"></rect></g></svg></g></svg>